<svg xmlns="http://www.w3.org/2000/svg" xmlns:xlink="http://www.w3.org/1999/xlink" width="500" zoomAndPan="magnify" viewBox="0 0 375 374.999991" height="500" preserveAspectRatio="xMidYMid meet" version="1.0"><defs><clipPath id="b64b77cdd7"><path d="M 100 110.210938 L 275.265625 110.210938 L 275.265625 277.460938 L 100 277.460938 Z M 100 110.210938 " clip-rule="nonzero"/></clipPath><clipPath id="9674df1688"><path d="M 99.765625 110.210938 L 275 110.210938 L 275 277 L 99.765625 277 Z M 99.765625 110.210938 " clip-rule="nonzero"/></clipPath></defs><g clip-path="url(#b64b77cdd7)"><path fill="#3ec0f9" d="M 187.742188 110.789062 L 214.78125 165.628906 L 275.265625 174.421875 L 231.484375 217.136719 L 241.851562 277.40625 L 187.742188 248.953125 L 133.597656 277.40625 L 143.929688 217.136719 L 100.183594 174.421875 L 160.667969 165.628906 Z M 187.742188 110.789062 " fill-opacity="1" fill-rule="nonzero"/></g><g clip-path="url(#9674df1688)"><path fill="#3ec0f9" d="M 187.320312 110.261719 L 214.394531 165.101562 L 274.878906 173.898438 L 231.101562 216.609375 L 241.433594 276.882812 L 187.320312 248.429688 L 133.210938 276.882812 L 143.542969 216.609375 L 99.765625 173.898438 L 160.25 165.101562 Z M 187.320312 110.261719 " fill-opacity="1" fill-rule="nonzero"/><path fill="#3ec0f9" d="M 187.320312 110.261719 L 214.394531 165.101562 L 274.878906 173.898438 L 231.101562 216.609375 L 241.433594 276.882812 L 187.320312 248.429688 L 133.210938 276.882812 L 143.542969 216.609375 L 99.765625 173.898438 L 160.25 165.101562 Z M 187.320312 110.261719 " fill-opacity="1" fill-rule="nonzero"/><path fill="#3ec0f9" d="M 187.320312 110.261719 L 214.394531 165.101562 L 274.878906 173.898438 L 231.101562 216.609375 L 241.433594 276.882812 L 187.320312 248.429688 L 133.210938 276.882812 L 143.542969 216.609375 L 99.765625 173.898438 L 160.25 165.101562 Z M 187.320312 110.261719 " fill-opacity="1" fill-rule="nonzero"/></g></svg>