<svg xmlns="http://www.w3.org/2000/svg" xmlns:xlink="http://www.w3.org/1999/xlink" width="500" zoomAndPan="magnify" viewBox="0 0 375 374.999991" height="500" preserveAspectRatio="xMidYMid meet" version="1.0"><defs><clipPath id="f22848d2a9"><path d="M 115 116 L 260 116 L 260 259.703125 L 115 259.703125 Z M 115 116 " clip-rule="nonzero"/></clipPath></defs><g clip-path="url(#f22848d2a9)"><path fill="#fe4159" d="M 207.792969 188.066406 L 255.117188 140.851562 C 260.730469 135.257812 260.730469 126.179688 255.117188 120.582031 C 249.503906 114.988281 240.417969 114.988281 234.804688 120.582031 L 187.480469 167.796875 L 140.15625 120.585938 C 134.550781 114.988281 125.453125 114.988281 119.839844 120.585938 C 114.230469 126.179688 114.230469 135.257812 119.839844 140.855469 L 167.164062 188.066406 L 119.722656 235.394531 C 114.117188 240.988281 114.117188 250.0625 119.722656 255.660156 C 122.527344 258.457031 126.207031 259.855469 129.878906 259.855469 C 133.554688 259.855469 137.234375 258.457031 140.042969 255.660156 L 187.476562 208.335938 L 234.796875 255.542969 C 237.601562 258.34375 241.277344 259.742188 244.953125 259.742188 C 248.625 259.742188 252.300781 258.34375 255.109375 255.542969 C 260.71875 249.949219 260.71875 240.871094 255.109375 235.277344 Z M 207.792969 188.066406 " fill-opacity="1" fill-rule="nonzero"/></g></svg>