<svg xmlns="http://www.w3.org/2000/svg" xmlns:xlink="http://www.w3.org/1999/xlink" width="500" zoomAndPan="magnify" viewBox="0 0 375 374.999991" height="500" preserveAspectRatio="xMidYMid meet" version="1.0"><defs><clipPath id="ded0ad3f27"><path d="M 113.34375 121.445312 L 173.425781 121.445312 L 173.425781 181.625 L 113.34375 181.625 Z M 113.34375 121.445312 " clip-rule="nonzero"/></clipPath><clipPath id="a0f3256054"><path d="M 129 118.777344 L 261.65625 118.777344 L 261.65625 268.777344 L 129 268.777344 Z M 129 118.777344 " clip-rule="nonzero"/></clipPath></defs><g clip-path="url(#ded0ad3f27)"><path fill="#f8ac25" d="M 115.964844 181.5625 L 171.488281 181.5625 C 173.164062 181.5625 174.003906 179.535156 172.820312 178.351562 L 116.457031 122.058594 C 115.261719 120.863281 113.214844 121.726562 113.242188 123.417969 L 114.082031 179.707031 C 114.097656 180.738281 114.9375 181.5625 115.964844 181.5625 " fill-opacity="1" fill-rule="nonzero"/></g><g clip-path="url(#a0f3256054)"><path fill="#f8ac25" d="M 143.191406 223.777344 C 145.316406 221.652344 148.792969 221.824219 150.742188 224.113281 C 159.359375 234.226562 172.179688 240.664062 186.488281 240.664062 C 212.375 240.660156 233.433594 219.628906 233.4375 193.777344 C 233.433594 167.921875 212.375 146.890625 186.484375 146.890625 C 173.542969 146.886719 161.808594 152.148438 153.304688 160.640625 L 133.410156 140.769531 C 147.007812 127.1875 165.785156 118.777344 186.488281 118.777344 C 227.898438 118.777344 261.582031 152.417969 261.582031 193.777344 C 261.582031 235.132812 227.894531 268.777344 186.484375 268.777344 C 164.132812 268.777344 144.035156 258.957031 130.269531 243.417969 C 128.484375 241.40625 128.605469 238.339844 130.507812 236.441406 L 143.191406 223.777344 " fill-opacity="1" fill-rule="nonzero"/></g></svg>